<svg id="SvgjsSvg1001" width="288" height="288" xmlns="http://www.w3.org/2000/svg" version="1.1" xmlns:xlink="http://www.w3.org/1999/xlink" xmlns:svgjs="http://svgjs.com/svgjs"><defs id="SvgjsDefs1002"></defs><g id="SvgjsG1008"><svg xmlns="http://www.w3.org/2000/svg" version="1.0" viewBox="0 0 512 512" width="288" height="288"><g transform="matrix(.1 0 0 -.1 0 512)" fill="#ffffff" class="color000 svgShape"><path d="M3211 3745 c-43 -37 -57 -85 -36 -128 13 -28 41 -48 163 -115 281-155 489 -264 847 -444 198 -99 362 -182 364 -184 1 -1 -28 -31 -65 -65 -134
-121 -522 -516 -638 -649 -238 -271 -518 -633 -530 -682 -8 -35 14 -90 45
-112 30 -20 83 -21 117 0 15 8 51 49 80 90 264 370 718 869 1114 1225 97 88
179 167 182 175 12 32 5 82 -15 108 -13 17 -140 85 -373 199 -354 174 -647
326 -981 509 -197 108 -224 115 -274 73z" fill="#ffffff" class="color000 svgShape"></path><path d="M2655 2955 c-737 -18 -1558 -38 -1825 -44 -298 -8 -496 -16 -513 -23
-35 -14 -57 -55 -57 -108 0 -33 6 -48 29 -71 35 -35 -48 -33 747 -14 1320 32
1887 45 2359 55 679 14 651 12 686 46 36 35 45 80 26 127 -16 38 -35 52 -82
60 -16 2 -633 -10 -1370 -28z" fill="#ffffff" class="color000 svgShape"></path></g></svg></g></svg>