<?xml version="1.0" standalone="no"?>
<!DOCTYPE svg PUBLIC "-//W3C//DTD SVG 20010904//EN"
 "http://www.w3.org/TR/2001/REC-SVG-20010904/DTD/svg10.dtd">
<svg version="1.0" xmlns="http://www.w3.org/2000/svg"
 width="512.000000pt" height="512.000000pt" viewBox="0 0 512.000000 512.000000"
 preserveAspectRatio="xMidYMid meet">

<g transform="translate(0.000000,512.000000) scale(0.100000,-0.100000)"
fill="#000000" stroke="none">
<path d="M1640 3754 c-14 -9 -50 -50 -80 -92 -260 -366 -717 -868 -1112 -1223
-97 -88 -179 -167 -182 -175 -12 -31 -5 -82 14 -107 13 -16 175 -102 452 -240
368 -183 588 -298 1013 -528 83 -46 122 -49 164 -14 43 37 57 85 36 128 -13
28 -41 48 -163 115 -281 155 -489 264 -847 444 -198 99 -362 182 -364 184 -1
1 28 31 65 65 134 121 522 516 638 649 238 271 518 633 530 682 8 35 -14 90
-45 112 -29 20 -86 20 -119 0z"/>
<path d="M4025 2424 c-690 -17 -1786 -43 -2422 -57 l-532 -13 -30 -29 c-40
-38 -49 -83 -25 -132 14 -28 28 -41 54 -49 26 -8 287 -4 970 12 514 12 1237
30 1605 38 369 9 774 19 900 22 127 3 243 10 258 16 35 14 57 55 57 108 0 33
-6 48 -29 71 l-29 29 -139 -1 c-76 -1 -363 -8 -638 -15z"/>
</g>
</svg>
